<?xml version="1.0" standalone="no"?>
<!DOCTYPE svg PUBLIC "-//W3C//DTD SVG 1.1//EN" "http://www.w3.org/Graphics/SVG/1.1/DTD/svg11.dtd">
<svg xmlns="http://www.w3.org/2000/svg" width="500" height="500" viewBox="0 0 500 500"><path fill-rule="evenodd" d="M246.428 17.285c-2.465 1.445-8.189 7.796-11.533 12.797-1.317 1.97-4.161 6.234-6.32 9.476-4.799 7.205-7.913 16.602-7.107 21.442.321 1.925 1.32 6.337 2.221 9.805 1.491 5.742 2.24 6.843 8.388 12.333 3.712 3.316 7.287 7.327 7.944 8.912 1.511 3.65.102 10.006-4.65 20.972-2.379 5.49-3.371 9.288-3.371 12.91 0 5.965.863 6.616 7.467 5.625 4.126-.619 4.652-1.055 7.404-6.134 6.897-12.735 9.13-19.739 9.118-28.603-.018-13.942-2.984-21.076-12.056-29.003l-6.085-5.317.617-4.801c.607-4.719 7.241-21.11 12.738-31.472 1.538-2.899 2.797-6.387 2.797-7.75 0-2.044-.48-2.471-2.75-2.442-1.512.02-3.682.582-4.822 1.25m42.035 33.667c-2.363.958-6.688 6.908-8.917 12.266-4.104 9.868.652 24.025 12.074 35.935 7.006 7.305 7.309 8.345 5.262 18.048-.885 4.193-2.034 6.183-5.5 9.532-4.313 4.166-5.353 7.186-3.49 10.126.636 1.004 1.996 1.167 5.21.624 8.557-1.446 13.495-9.935 14.619-25.132.722-9.762-1.402-16.071-8.64-25.661-3.155-4.18-6.536-9.372-7.513-11.538-1.865-4.138-1.876-4.018 1.531-17.302 1.794-6.998.471-8.967-4.636-6.898m-99.532 7.826c-1.963 1.497-5.966 5.088-8.895 7.98l-5.325 5.259.58 6.916c.693 8.259 1.807 10.58 9.112 18.981 5.936 6.826 9.597 13.294 9.597 16.951 0 3.695-2.757 7.864-6.144 9.291-10.198 4.297-11.343 5.186-11.664 9.06-.274 3.297-.01 3.792 2.337 4.381 1.734.435 4.25-.05 7.308-1.409 2.565-1.139 6.343-2.58 8.397-3.202 7.351-2.226 10.271-8.992 9.526-22.068-.625-10.958-3.993-18.661-12.114-27.706-3.105-3.458-5.646-6.615-5.646-7.016s2.24-4.321 4.978-8.712 4.988-8.772 5-9.734c.032-2.549-2.922-2.119-7.047 1.028M268.5 184.646c-7.188.996-15.625 1.225-30 .814-11-.314-27.425-.088-36.5.503-26.931 1.752-39.412 4.452-65.764 14.225-12.279 4.555-16.748 6.679-18.239 8.672-1.086 1.452-2.387 3.137-2.889 3.744-.503.608-.91 2.183-.904 3.5s-.463 8.544-1.043 16.058c-.58 7.515-1.136 22.815-1.235 34-.162 18.324-1.905 39.377-3.469 41.907-.329.532-.796 10.747-1.038 22.699-.665 32.8-2.302 75.382-3.018 78.482-.54 2.341-1.143 2.75-4.06 2.75-9.427 0-34.484 7.719-40.87 12.59-5.074 3.87-6.891 9.661-6.183 19.703.96 13.594 5.605 21.267 15.712 25.951 6.592 3.055 30.294 9.395 38 10.164 3.025.302 8.65.803 12.5 1.113s10.825 1.086 15.5 1.725c4.768.652 18.819 1.1 32 1.021 12.925-.078 55.185-.203 93.911-.278 66.69-.13 70.838-.243 78.5-2.13 17.044-4.199 22.282-6.612 27.888-12.846 4.965-5.523 7.782-12.535 9.78-24.347 2.006-11.86-.062-16.934-9.386-23.03-4.874-3.187-8.392-4.615-14.943-6.065-2.5-.554-2.75-1.016-2.75-5.09 0-4.424 1.307-5.735 3.55-3.56 1.923 1.865 13.169 4.915 20.648 5.6 4.531.414 12.76.184 20-.56 10.736-1.104 13.639-1.829 22.802-5.697 22.495-9.495 32.244-15.439 41.216-25.131 13.578-14.665 21.17-27.717 22.79-39.176 2.295-16.236-2.855-40.714-12.824-60.951-5.535-11.234-7.739-14.594-13.165-20.067-5.487-5.534-8.098-7.264-16.517-10.943-8.645-3.778-11.164-4.428-18.587-4.798-7.58-.377-9.808-.047-19 2.813-13.136 4.088-16.685 5.896-23.263 11.854-2.913 2.637-7.452 6.279-10.086 8.091-6.064 4.172-6.518 3.554-6.582-8.956-.075-14.44-1.668-29.244-3.939-36.597-1.124-3.637-2.053-7.804-2.065-9.258-.097-11.711-16.893-23.151-41.478-28.251-10.774-2.236-29.893-2.341-45-.248m-57.866 7.992c-10.808.625-21.784 1.437-24.392 1.804-6.908.97-31.163 7.206-42.742 10.988-5.5 1.797-12.31 3.857-15.133 4.578l-5.134 1.31.544 4.091c1.157 8.693 6.88 16.633 15.592 21.629 6.292 3.609 7.865 3.774 6.796.712-.433-1.238-.703-3.262-.601-4.5s.278-3.488.39-5 .433-2.182.712-1.488c.34.843 1.443.263 3.323-1.75 2.395-2.564 4.458-3.354 7.649-2.927.351.047 1.06-.515 1.576-1.25.671-.954 1.074-1.006 1.414-.18.287.697 1.743.949 3.674.637 1.759-.284 3.739-.602 4.4-.706s2.047-.953 3.079-1.888c2.344-2.121 4.219-2.183 4.219-.139 0 .857.457 1.276 1.016.931.559-.346.758-1.047.441-1.559-.316-.512-.098-.931.484-.931s1.059.457 1.059 1.015c0 .635 2.535.836 6.75.538 3.713-.263 10.778-.755 15.702-1.094s10.215-1.27 11.759-2.068c2.159-1.117 3.29-1.193 4.9-.331 1.152.616 3.02.877 4.153.581s2.811-.136 3.731.356c3.728 1.996 40.086 3.204 46.671 1.551 1.515-.381 2.257-.176 2.091.576-.143.647 1.232 1.353 3.093 1.587 2.536.32 3.187.103 2.676-.894-.371-.724.034-.443.9.624 1.52 1.875 1.574 1.877 1.574.059s.046-1.819 1.339-.051c1.242 1.698 1.387 1.707 1.993.128.36-.937 1.157-1.393 1.773-1.012.615.38 1.511.071 1.991-.687.691-1.09.877-1.012.889.372.008.963.465 1.75 1.015 1.75s1.007.787 1.015 1.75c.013 1.496.157 1.532.985.25.704-1.09.974-1.142.985-.191.008.72.427 1.055.93.744s1.073-.088 1.268.495c.194.584 1.02 1.162 1.835 1.285s2.045.575 2.732 1.004c.842.526 1.25.136 1.25-1.195 0-1.086-.562-2.202-1.25-2.48-.687-.277-.238-.54 1-.583s2.25.284 2.25.729c0 .444 2.465.769 5.479.723 3.587-.055 5.648.357 5.968 1.192.27.703 1.08 1.277 1.801 1.277s1.959.9 2.752 2 2.072 2 2.843 2c1.133 0 1.163.288.157 1.5-.779.939-.849 1.5-.186 1.5.583 0 1.2 1.394 1.373 3.097l.313 3.098 4.204-3.348c2.313-1.841 6.553-6.206 9.423-9.7l5.217-6.352-1.922-3.569c-2.546-4.728-8.761-9.237-20.922-15.18-16.136-7.885-19.11-8.379-46.5-7.722-12.925.31-28.274.251-34.108-.13-5.834-.382-19.45-.182-30.258.444M296 220c0 .55.45 1 1 1s1-.45 1-1-.45-1-1-1-1 .45-1 1m-8.555 1.089c-.64 1.035-.715.993 2.333 1.329 1.253.139 2.129-.197 1.946-.746-.439-1.317-3.562-1.743-4.279-.583m52.869 16.168c-14.817 14.041-20.664 16.008-51.314 17.258-7.425.303-20.107 1.281-28.182 2.173-14.928 1.649-22.126 1.366-42.318-1.666-5.076-.762-16.876-1.814-39.5-3.523-2.475-.187-9.748-.426-16.162-.532-18.938-.312-27.892-2.912-36.753-10.67l-5.416-4.741.666 8.472c.366 4.66.936 17.697 1.266 28.972.556 18.981.414 21.574-1.921 35-1.388 7.975-2.827 19-3.199 24.5s-1.462 16.451-2.423 24.336c-1.937 15.912-1.869 23.933.308 36.32 1.631 9.274 6.339 22.382 9.469 26.361 1.824 2.319 14.518 12.291 16.052 12.611.337.07 1.575.231 2.75.358 11.487 1.238 17.761 2.233 38.705 6.138 13.287 2.477 27.547 5.123 31.689 5.879 16.749 3.06 89.31 2.174 97.177-1.185 2.039-.871 4.739-1.733 6-1.915 13.024-1.883 17.511-2.843 18.748-4.012.972-.917 1.874-5.622 2.71-14.133 1.75-17.816 2.888-24.516 4.877-28.707 1.615-3.403 1.799-3.508 3.048-1.724 1.021 1.457 2.965 2.016 8.355 2.401 3.864.277 7.623.999 8.354 1.606 2.176 1.806 20.076 3.445 32.045 2.934 11.432-.488 19.024-2.674 30.33-8.734 2.087-1.119 4.159-2.034 4.603-2.034 1.131 0 10.661-7.163 13.978-10.506 5.493-5.537 17.145-24.5 18.431-29.994.129-.55.655-2.688 1.168-4.75 2.01-8.069.721-23.04-3.329-38.654-2.319-8.941-9.457-22.69-14.954-28.805-7.548-8.394-26.906-19.622-35.112-20.364-6.771-.612-15.328 1.246-20.323 4.414-9.139 5.796-21.969 18.382-25.138 24.662-2.901 5.746-6.021 7.997-11.087 7.997-2.252 0-2.87-4.347-2.77-19.5.133-20.005-.409-40.971-1.109-42.901-.592-1.634-1.954-.701-9.719 6.658m52.829 49.28c-10.808 2.459-23.525 9.587-33.384 18.713-1.634 1.512-3.403 2.75-3.932 2.75s-.676.9-.327 2 .217 2-.295 2c-1.982 0-3.391 12.447-3.906 34.5-.528 22.633-.501 23.044 1.677 25.778 3.258 4.09 8.226 6.196 20.524 8.705 8.416 1.717 12.763 2.099 18.507 1.627 17.368-1.426 36.841-7.245 40.525-12.11 3.946-5.212 13.274-24.788 14.356-30.13 1.874-9.25-1.605-24.612-8.088-35.712-4.771-8.17-10.649-14.082-16.8-16.897-5.82-2.663-19.905-3.261-28.857-1.224m4.357 7.8c-5.671 1.888-13.99 7.458-21.347 14.293-3.476 3.228-8.195 6.775-10.486 7.88l-4.167 2.01-.3 7.99c-.458 12.208 1.482 34.975 3.277 38.446 1.909 3.692 4.347 5.039 12.019 6.644 7.32 1.532 11.901.782 24.841-4.064 5.192-1.945 9.991-3.536 10.665-3.536 2.738 0 9.139-4.602 11.719-8.426 1.512-2.241 4.428-6.345 6.48-9.12s4.697-7.229 5.877-9.898c2.905-6.567 2.043-14.344-2.642-23.822-4.621-9.351-8.615-14.158-13.88-16.707-5.552-2.688-16.532-3.529-22.056-1.69M227.067 344.25a44866 44866 0 0 1-11.718 31.5l-2.332 6.25h11.768l11.255-30.25a49125 49125 0 0 0 11.714-31.5c.335-.91-1.138-1.25-5.421-1.25h-5.881zm-41.378-6.661c-20.645 10.398-20.808 10.505-20.5 13.518.342 3.337-2.022 2.062 29.612 15.967l13.301 5.847-.301-5.144-.301-5.144-13.855-5.755c-7.62-3.165-14.037-5.936-14.259-6.159-.223-.222 6.124-3.477 14.105-7.232L208 336.66v-4.83c0-2.656-.338-4.806-.75-4.777-.412.03-10.115 4.771-21.561 10.536M253 331.83v4.83l13.773 6.42c7.575 3.531 13.903 6.824 14.061 7.319.159.494-5.927 3.45-13.523 6.568l-13.811 5.669-.301 5.152-.301 5.153 3.301-1.406c1.815-.774 11.401-4.974 21.301-9.335 17.402-7.664 18.01-8.031 18.311-11.029.31-3.098.291-3.111-20.741-13.636C263.491 331.741 253.789 327 253.509 327s-.509 2.174-.509 4.83M95.5 420.832c-6.602 2.333-22.398 10.949-26.466 14.435-4.81 4.123-5.139 8.948-.99 14.526 1.781 2.396 5.255 5.338 7.859 6.658 6.747 3.419 29.812 9.406 42.597 11.056 18.141 2.342 26.704 3.578 32.5 4.691 12.311 2.363 120.171.761 147.5-2.19 4.95-.535 12.721-.98 17.268-.99 7.825-.017 16.8-1.804 28.032-5.582 13.085-4.401 22.2-13.791 22.2-22.871 0-4.441-3.406-8.269-11.151-12.533l-5.65-3.111-.695 5.29c-.834 6.356-4.885 15.907-7.855 18.522-1.182 1.041-4.849 2.703-8.149 3.694s-8.794 3.1-12.208 4.687c-6.132 2.85-6.435 2.886-24.5 2.883-10.061-.002-25.042-.654-33.292-1.449-8.25-.796-18.15-1.717-22-2.047-9.726-.835-19.532-2.264-27.896-4.065-25.568-5.508-46.844-8.808-63.766-9.892-19.528-1.25-42.159-12.005-44.447-21.121-.719-2.867-2.176-2.964-8.891-.591"/></svg>